<svg xmlns="http://www.w3.org/2000/svg" viewBox="0 0 512 512" role="img" aria-label="GabaritoIA">
  <defs>
    <linearGradient id="g" x1="0" y1="0" x2="1" y2="1">
      <stop offset="0" stop-color="#7c3aed"/>
      <stop offset="1" stop-color="#22c55e"/>
    </linearGradient>
  </defs>
  <rect width="512" height="512" rx="112" fill="#09090b"/>
  <rect x="42" y="42" width="428" height="428" rx="88" fill="url(#g)" opacity="0.18"/>
  <path d="M144 164h224a28 28 0 0 1 28 28v150a28 28 0 0 1-28 28H144a28 28 0 0 1-28-28V192a28 28 0 0 1 28-28Z" fill="#18181b" stroke="#7c3aed" stroke-width="14"/>
  <path d="M166 220h180" stroke="#f8fafc" stroke-width="22" stroke-linecap="round"/>
  <path d="M166 276h120" stroke="#22c55e" stroke-width="22" stroke-linecap="round"/>
  <path d="M166 328h76" stroke="#f8fafc" stroke-width="22" stroke-linecap="round" opacity="0.72"/>
  <circle cx="352" cy="315" r="38" fill="#22c55e"/>
  <path d="m333 314 13 13 27-32" fill="none" stroke="#052e16" stroke-width="14" stroke-linecap="round" stroke-linejoin="round"/>
  <path d="M256 95v38M256 379v38M95 256h38M379 256h38" stroke="#7c3aed" stroke-width="18" stroke-linecap="round"/>
</svg>
